<?xml version="1.0" encoding="UTF-8"?>
<svg id="Layer_1" data-name="Layer 1" xmlns="http://www.w3.org/2000/svg" viewBox="0 0 1022.94 1022.94">
  <defs>
    <style>
      .cls-1, .cls-2 {
        stroke-width: 0px;
      }

      .cls-2 {
        fill: #fff;
      }
    </style>
  </defs>
  <circle class="cls-2" cx="511.47" cy="511.47" r="511.47"/>
  <path class="cls-1" d="M481.56,46.41c-2,.18-8.36.82-14.08,1.27-132.02,11.9-255.69,83.14-334.01,192.63-43.61,60.88-71.51,129.94-82.05,203.08-3.73,25.53-4.18,33.07-4.18,67.69s.45,42.16,4.18,67.69c25.26,174.55,149.47,321.2,317.93,375.54,30.17,9.72,61.97,16.36,98.13,20.35,14.08,1.54,74.96,1.54,89.05,0,62.42-6.91,115.31-22.35,167.46-48.98,8-4.09,9.54-5.18,8.45-6.09-.73-.55-34.8-46.25-75.69-101.49l-74.33-100.4-93.14-137.84c-51.25-75.78-93.41-137.75-93.77-137.75-.36-.09-.73,61.15-.91,135.93-.27,130.93-.36,136.2-2,139.29-2.36,4.45-4.18,6.27-8,8.27-2.91,1.45-5.45,1.73-19.17,1.73h-15.72l-4.18-2.64c-2.73-1.73-4.72-4-6.09-6.63l-1.91-4.09.18-182.18.27-182.27,2.82-3.54c1.45-1.91,4.54-4.36,6.72-5.54,3.73-1.82,5.18-2,20.9-2,18.54,0,21.63.73,26.44,6,1.36,1.45,51.79,77.42,112.13,168.92,60.33,91.5,142.84,216.44,183.36,277.77l73.6,111.49,3.73-2.45c32.98-21.44,67.88-51.97,95.5-83.78,58.79-67.51,96.68-149.83,109.4-237.61,3.73-25.53,4.18-33.07,4.18-67.69s-.45-42.16-4.18-67.69c-25.26-174.55-149.47-321.2-317.93-375.54-29.71-9.63-61.33-16.26-96.77-20.26-8.72-.91-68.78-1.91-76.33-1.18h0ZM671.83,327.55c4.36,2.18,7.91,6.36,9.18,10.72.73,2.36.91,52.88.73,166.73l-.27,163.37-28.8-44.16-28.89-44.16v-118.76c0-76.78.36-119.94.91-122.03,1.45-5.09,4.63-9.09,9-11.45,3.73-1.91,5.09-2.09,19.35-2.09,13.45,0,15.81.18,18.81,1.82h0Z"/>
  <path class="cls-1" d="M784.27,944.21c-3.5,2.2-4.6,3.7-1.5,2,2.2-1.3,5.8-4,5.2-4.1-.3,0-2,1-3.7,2.1ZM777.37,948.71c-1.8,1.4-1.8,1.5.4.4,1.2-.6,2.2-1.3,2.2-1.5,0-.8-.5-.6-2.6,1.1h0ZM772.37,951.71c-1.8,1.4-1.8,1.5.4.4,1.2-.6,2.2-1.3,2.2-1.5,0-.8-.5-.6-2.6,1.1h0ZM767.38,954.71c-1.8,1.4-1.8,1.5.4.4,1.2-.6,2.2-1.3,2.2-1.5,0-.8-.5-.6-2.6,1.1h0ZM759.78,958.71c-3.8,2-3.6,2.8.2.9,1.7-.9,3-1.8,3-2,0-.7-.1-.6-3.2,1.1Z"/>
</svg>